<?xml version="1.0" encoding="utf-8"?>
<!-- Generator: Adobe Illustrator 24.0.2, SVG Export Plug-In . SVG Version: 6.00 Build 0)  -->
<svg version="1.1" id="Layer_1" xmlns="http://www.w3.org/2000/svg" xmlns:xlink="http://www.w3.org/1999/xlink" x="0px" y="0px"
	 viewBox="0 0 1600 400" style="enable-background:new 0 0 1600 400;" xml:space="preserve">
<g>
	<path d="M31.6,235.7c-11.7-8.3-13.7-15.1-7.8-27.4c8.4-17.6,17.2-35.1,26-52.5c2.4-4.7,3.7-8.9,0.5-13.8c-2.2-3.4-2.6-7.5-2.6-11.6
		c0-32.2-0.1-64.5,0-96.7c0.1-10.9,4.2-20,14.4-25.3c9.7-5,21.4-2.6,30.5,6.6c18.9,18.8,37.7,37.7,56.3,56.8c4.9,5,9.9,7.5,17.1,7.4
		c18.3-0.4,36.6-0.6,54.9,0c9.3,0.3,15.7-3.1,21.9-9.6C260.2,51.5,278,33.8,295.7,16c4.6-4.7,9.6-8.8,16.5-9.6
		c15.5-1.8,27.4,7.2,28.6,23.4c1.1,14.2,0.3,28.5,0.3,42.7c0,18,0,36,0,54c0,6.5,0.2,13.1-3.8,18.8c-2.5,3.5-0.5,6.5,1,9.5
		c8.3,17,16.6,33.9,24.8,51c7.9,16.3,5.9,22.6-9.6,32.1c-2.4,1.5-4.7,3.1-7.2,4.3c-4.8,2.3-5.1,5.6-3,9.9c2.1,4.5,4.3,8.9,6,13.6
		c3.7,10.2,1.4,16.6-8.4,21.5c-15.2,7.7-30.6,15.1-46.1,22.2c-11,5.1-18.6,12.8-23.2,24.1c-5.1,12.3-10.7,24.4-16.2,36.5
		c-6.4,14.2-17.4,22.7-32.9,23.6c-18.9,1.1-37.8,1.2-56.7-0.2c-15.3-1.1-26-9.3-32.2-23.1c-5.6-12.4-11.3-24.8-16.4-37.5
		c-4.2-10.3-10.9-17.6-21.1-22.3c-15.5-7.1-30.8-14.7-46.1-22.2c-12.4-6.1-14.8-12.6-9.6-25.7c0.1-0.3,0.2-0.6,0.3-0.9
		C47.6,245.3,47.6,245.3,31.6,235.7 M292.3,54.7c-12.9,13-25.9,25.8-38.7,38.9c-7.2,7.4-15.6,10.7-25.8,10.6
		c-21.7-0.2-43.4-0.3-65.1,0c-11.6,0.2-20.9-3.6-29-12c-17.2-17.9-34.8-35.4-52.4-52.9c-2.2-2.2-4-5.5-8.6-5.6c0,31.2,0,61.8,0,92.5
		c0,3,1.3,5.3,3.6,7.2c6.8,5.8,6.6,12.3,2.7,20c-9.2,17.9-17.6,36.3-26.9,54.2c-3.4,6.6-2.9,10.3,3.9,14
		c24.4,13.5,23.7,16.1,12.7,39c-2.6,5.4-1.8,8.2,3.8,10.8c12.4,5.7,24.5,11.9,36.8,17.9c13.9,6.8,24,17.2,30,31.6
		c5,12,10.5,23.8,15.4,35.9c3.2,7.9,8.5,11.5,17.2,11.3c14.9-0.4,29.8-0.4,44.7,0c9,0.3,14.5-3.5,18-11.6
		c5.1-12,10.8-23.7,15.9-35.7c6.1-14.4,16.1-24.8,30.1-31.6c11.7-5.7,23.3-11.7,35.2-17c6.1-2.7,7.9-5.7,4.7-12
		c-13.9-27.2-6-28.6,12.1-38.4c6.6-3.6,7.5-7.3,4-14c-9.2-17.9-17.6-36.3-26.4-54.4c-3.4-7-4.3-13.8,2.1-19.5
		c3.5-3.1,3.8-6.8,3.8-10.9c0-27.6,0-55.2-0.1-82.8c0-2.2,1.2-5-2.7-6.7C306.7,40.1,300,46.9,292.3,54.7z"/>
	<path d="M282.8,209.7c-5.7,10.3-13.8,16.4-24.3,19.9c-7.4,2.4-13.8,6-17.7,13.7c-2.9,5.7-9,6.5-14.6,3.7c-5.7-2.9-7.5-7.7-5.7-14.1
		c4.1-14.1,10.8-25.5,25.7-30.7c7-2.4,13.5-6.2,20.1-9.6c5.3-2.7,10.8-4.1,15.6,0.3C286.9,197.6,286.4,203.4,282.8,209.7z"/>
	<path d="M169.6,236c-0.3,7.2-3.7,11.1-10,12.1c-6.4,1-10.9-2-13-7.9s-7.1-7.5-12-9.2c-11.6-4.2-21.7-10.2-28-21.5
		c-3-5.3-4.3-10.4,0.1-15.4c4.1-4.7,9.2-4.6,14.4-2.2c9.8,4.6,19.6,9.1,29.3,14C162.2,212,166,223.6,169.6,236z"/>
	<path d="M174.1,338.8c-2.4-2.9-4.5-5.1-6.4-7.6c-3.3-4.3-4-9.1-1.8-13.9c2.2-5,6.7-5.8,11.6-5.8c11.7,0.1,23.5-0.2,35.2,0.1
		c10.5,0.3,15.6,9.3,9.5,18c-5.2,7.5-11.6,14.4-18.3,20.8c-5.7,5.5-14.4,4.8-20.2-0.7C180.5,346.4,177.6,342.8,174.1,338.8z"/>
</g>
<path d="M491.6,113.8v89.8l45.1-49.6h38.6l-46.2,48.7l48.3,69.7h-35.3l-33.7-51.2l-16.8,18.3v32.8h-32.2V113.8H491.6z"/>
<path d="M688.4,272.4l-0.9-33.7l4,1.6c-1.6,12.2-5.9,21.1-12.8,26.6c-6.9,5.5-15.5,8.3-25.6,8.3c-12.7,0-22.5-4.1-29.6-12.2
	s-10.6-19-10.6-32.7V154h32.2v65.5c0,7,0.6,12.6,1.8,16.9c1.2,4.2,3.1,7.5,5.7,9.8c2.6,2.3,6.3,3.5,11.1,3.5c7,0,12.4-2.6,16.3-7.7
	c3.9-5.1,5.8-12.6,5.8-22.5V154H718v118.4H688.4z"/>
<path d="M784.1,154l0.9,34.2l-2.5-1.1c1.6-11.2,4.9-19.5,9.8-24.9c4.9-5.4,11.8-8.2,20.8-8.2H824v24.4h-11.2c-6.4,0-11.6,1-15.6,3
	s-7,5.1-8.8,9.2c-1.9,4.1-2.8,9.3-2.8,15.5v66.3h-32.2V154H784.1z"/>
<path d="M941.9,154v24.1h-82.4V154H941.9z M910.6,127.2v107c0,4.5,1.1,7.9,3.4,10.3c2.2,2.4,5.5,3.6,9.8,3.6h18.3v24.4h-24.6
	c-13,0-22.7-3.2-29.3-9.6s-9.8-15.9-9.8-28.6v-107L910.6,127.2L910.6,127.2z"/>
<path d="M997.1,161.6c9.3-6.8,21.6-10.3,36.7-10.3c17.7,0,31.1,4.3,40.2,13c9.1,8.6,13.6,21.4,13.6,38.4v38.2c0,3.4,0.6,5.8,1.9,7.1
	s3.2,2,5.7,2h4.2v22.3l-6.3,0.2h-0.9c-3.9,0.3-8,0.2-12.5-0.3s-8.6-2.1-12.4-4.8s-6.1-7-7-13c-2.8,6.3-7.7,11.2-14.5,15
	c-6.9,3.7-15.4,5.6-25.7,5.6c-12.4,0-22.5-3.1-30.5-9.3c-8-6.2-12-14.3-12-24.5c0-7.1,1.7-13.1,5.1-17.8c3.4-4.7,8.3-8.4,14.6-11.2
	s14.7-5.2,25.1-7.3l32.6-6.5c-0.2-8.8-1.9-15.3-5.4-19.4c-3.4-4.2-8.8-6.3-16.1-6.3c-5.7,0-10.4,1.6-14.1,4.8
	c-3.7,3.2-6.3,8-7.6,14.4l-32.6-1.8C982,178,987.8,168.4,997.1,161.6z M1015.8,249.8c3.3,2.5,8,3.9,14.1,4c5.1-0.1,9.6-1.5,13.5-3.9
	c3.9-2.5,7-6.2,9.3-11.2c2.2-5,3.3-11.1,3.1-18.2l0.2-1.3l-20.6,3.8l-3.6,0.4c-5.1,1.2-9,2.3-11.8,3.2c-2.8,1-5.1,2.6-6.7,4.8
	c-1.6,2.2-2.5,5.1-2.5,8.7C1010.9,244.1,1012.5,247.3,1015.8,249.8z"/>
<path d="M1135,154h30.8l0.9,24.6l-2.5-2.2c2.8-8,7.5-14.2,14-18.5s14.3-6.5,23.3-6.5c11,0,20.3,2.7,27.9,8.2
	c7.6,5.4,13.3,12.8,17.2,22.1c3.9,9.3,5.8,19.8,5.8,31.6s-1.9,22.3-5.8,31.6s-9.6,16.7-17.2,22.1s-16.9,8.2-27.9,8.2
	c-6,0-11.4-1-16.2-2.9c-4.8-1.9-9-4.8-12.6-8.6s-6.4-8.5-8.5-14l2.9-1.8V306h-32.2L1135,154L1135,154z M1167.8,231.7
	c1.9,5.5,5,10,9.2,13.4s9.2,5.1,15.2,5.1c8.8,0,15.5-3.5,20.1-10.6s6.9-15.9,6.9-26.5c0-10.4-2.3-19.2-7-26.2
	c-4.7-7.1-11.4-10.6-20-10.6c-6.1,0-11.2,1.7-15.3,5c-4.1,3.4-7.1,7.8-9,13.4c-1.9,5.6-2.9,11.7-2.9,18.4
	C1164.9,220,1165.9,226.2,1167.8,231.7z"/>
<path d="M1287.9,154h30.8l0.9,24.6l-2.5-2.2c2.8-8,7.5-14.2,14-18.5s14.3-6.5,23.3-6.5c11,0,20.3,2.7,27.9,8.2
	c7.6,5.4,13.3,12.8,17.2,22.1c3.9,9.3,5.8,19.8,5.8,31.6s-1.9,22.3-5.8,31.6s-9.6,16.7-17.2,22.1s-16.9,8.2-27.9,8.2
	c-6,0-11.4-1-16.2-2.9c-4.8-1.9-9-4.8-12.6-8.6s-6.4-8.5-8.5-14l2.9-1.8V306h-32.2L1287.9,154L1287.9,154z M1320.8,231.7
	c1.9,5.5,5,10,9.2,13.4s9.2,5.1,15.2,5.1c8.8,0,15.5-3.5,20.1-10.6s6.9-15.9,6.9-26.5c0-10.4-2.3-19.2-7-26.2
	c-4.7-7.1-11.4-10.6-20-10.6c-6.1,0-11.2,1.7-15.3,5c-4.1,3.4-7.1,7.8-9,13.4c-1.9,5.6-2.9,11.7-2.9,18.4
	C1317.9,220,1318.8,226.2,1320.8,231.7z"/>
<path d="M1509.1,179c-4.2-3.3-9-4.9-14.4-4.9c-5.5,0-9.9,1.3-13.3,3.9c-3.4,2.6-5,6.1-4.8,10.6c0.1,4,2.2,7.2,6.3,9.5
	c4,2.3,9.3,4.1,15.9,5.2c12.1,1.9,21.8,4.3,29.3,7.1c7.4,2.8,13,6.7,16.8,11.5c3.7,4.8,5.6,10.9,5.6,18.2c0,7.7-2.2,14.2-6.7,19.3
	c-4.5,5.1-10.6,9-18.4,11.6s-16.7,3.9-26.7,3.9c-11.3,0-21.2-1.6-29.7-4.8c-8.5-3.2-15.1-7.8-19.9-13.9c-4.8-6-7.5-13.2-8.3-21.6
	l32.4-1.8c0.7,4,2.2,7.4,4.2,10.2c2.1,2.8,4.9,4.9,8.4,6.4s7.5,2.2,12,2.2c5.4,0,10-1,13.9-3s5.8-5.1,5.8-9.3
	c-0.2-2.8-1-5.1-2.6-6.9s-3.7-3.2-6.3-4.1c-2.6-1-6.1-1.9-10.4-2.8c-1.2-0.1-2.8-0.4-4.7-0.9c-11.6-2.4-20.9-4.9-27.9-7.6
	c-7-2.7-12.4-6.3-16.3-10.8s-5.8-10.4-5.8-17.5c0-7.7,2.1-14.4,6.3-20.1c4.2-5.7,10.2-10,18.2-13.1s17.4-4.6,28.3-4.6
	c14.6,0,26.6,3.5,36.1,10.6s15.2,16.8,17.1,29.2l-32.2,1.3C1516,186.7,1513.3,182.3,1509.1,179z"/>
</svg>
