<?xml version="1.0" encoding="utf-8"?>
<!-- Generator: Adobe Illustrator 24.0.2, SVG Export Plug-In . SVG Version: 6.00 Build 0)  -->
<svg version="1.1" id="Layer_1" xmlns="http://www.w3.org/2000/svg" xmlns:xlink="http://www.w3.org/1999/xlink" x="0px" y="0px"
	 viewBox="0 0 512 512" style="enable-background:new 0 0 512 512;" xml:space="preserve">
<g>
	<path d="M42.6,302.8c-15.4-11-18-19.8-10.2-36c11.1-23.1,22.5-46.1,34.1-68.9c3.1-6.2,4.9-11.7,0.6-18.2c-2.9-4.4-3.5-9.9-3.5-15.3
		c0-42.3-0.1-84.7,0.1-127c0.1-14.4,5.6-26.3,18.9-33.2C95.4-2.2,110.7,1,122.7,13c24.8,24.7,49.5,49.5,73.9,74.6
		c6.4,6.6,13,9.9,22.4,9.7c24-0.6,48-0.8,72,0c12.2,0.4,20.6-4.1,28.8-12.5c22.8-23.8,46.2-47,69.5-70.4
		c6.1-6.1,12.6-11.5,21.7-12.6c20.3-2.4,36,9.4,37.6,30.7c1.4,18.6,0.4,37.4,0.4,56.1c0,23.6-0.1,47.2,0,70.8c0,8.6,0.3,17.2-5,24.7
		c-3.2,4.6-0.6,8.5,1.4,12.5c10.9,22.3,21.8,44.6,32.6,66.9c10.3,21.4,7.8,29.6-12.6,42.2c-3.1,1.9-6.1,4.1-9.4,5.6
		c-6.3,3-6.7,7.3-3.9,13c2.8,5.9,5.7,11.7,7.9,17.8c4.8,13.3,1.8,21.8-11,28.3c-20,10.1-40.1,19.8-60.5,29.1
		c-14.4,6.6-24.4,16.9-30.5,31.6c-6.7,16.2-14.1,32-21.3,48c-8.4,18.7-22.8,29.8-43.2,31c-24.8,1.4-49.6,1.5-74.4-0.2
		c-20.1-1.4-34.1-12.2-42.3-30.4c-7.4-16.3-14.8-32.6-21.5-49.2c-5.5-13.5-14.3-23.1-27.7-29.2c-20.3-9.3-40.4-19.3-60.5-29.1
		c-16.3-8-19.4-16.5-12.6-33.7c0.1-0.4,0.3-0.8,0.5-1.1C63.5,315.5,63.5,315.5,42.6,302.8 M384.8,65.2c-17,17-34.1,33.9-50.8,51.1
		c-9.4,9.7-20.5,14-33.9,13.9c-28.5-0.3-57-0.4-85.5,0.1c-15.3,0.3-27.4-4.7-38.1-15.8C154,91,130.9,68.1,107.8,45.1
		c-2.9-2.9-5.2-7.2-11.3-7.4c0,40.9,0,81.2,0,121.4c0,4,1.7,6.9,4.7,9.5c9,7.6,8.6,16.2,3.5,26.2c-12.1,23.5-23.1,47.6-35.3,71.1
		c-4.5,8.6-3.8,13.5,5.1,18.4c32,17.8,31.2,21.1,16.7,51.2c-3.4,7.1-2.3,10.8,5,14.2c16.3,7.5,32.2,15.7,48.3,23.5
		c18.3,9,31.5,22.6,39.4,41.5c6.6,15.8,13.8,31.3,20.2,47.1c4.2,10.4,11.2,15,22.6,14.8c19.5-0.5,39.1-0.6,58.6,0
		c11.9,0.3,19.1-4.6,23.6-15.3c6.7-15.7,14.1-31.1,20.8-46.9c8-18.8,21.1-32.6,39.5-41.5c15.4-7.4,30.6-15.3,46.2-22.3
		c8-3.6,10.4-7.5,6.2-15.8c-18.3-35.7-7.9-37.5,15.9-50.4c8.6-4.7,9.9-9.6,5.3-18.4c-12.1-23.5-23.1-47.6-34.7-71.4
		c-4.5-9.2-5.6-18.2,2.8-25.6c4.6-4.1,5-8.9,5-14.3c0-36.2,0-72.5-0.2-108.7c0-2.8,1.6-6.6-3.5-8.7
		C403.7,46.1,394.9,55.1,384.8,65.2z"/>
	<path d="M372.3,268.7c-7.5,13.5-18.2,21.6-31.9,26.1c-9.8,3.2-18.1,7.8-23.3,18c-3.8,7.5-11.8,8.6-19.2,4.8
		c-7.4-3.7-9.9-10.1-7.5-18.5c5.3-18.4,14.2-33.5,33.7-40.2c9.2-3.2,17.7-8.2,26.4-12.6c7-3.5,14.2-5.3,20.5,0.4
		C377.7,252.9,377,260.5,372.3,268.7z"/>
	<path d="M223.7,303.3c-0.3,9.5-4.8,14.6-13.2,15.9c-8.4,1.3-14.4-2.7-17.1-10.4c-2.7-7.7-9.4-9.8-15.7-12.1
		c-15.3-5.5-28.5-13.4-36.7-28.2c-3.9-7-5.6-13.7,0.1-20.2c5.3-6.1,12.1-6,18.9-2.8c12.9,6,25.8,11.9,38.4,18.4
		C214,271.7,219,287,223.7,303.3z"/>
	<path d="M229.7,438.2c-3.2-3.8-5.9-6.8-8.4-10c-4.3-5.6-5.2-11.9-2.4-18.3c2.9-6.5,8.7-7.7,15.2-7.6c15.4,0.1,30.8-0.3,46.2,0.1
		c13.8,0.4,20.4,12.3,12.5,23.6c-6.9,9.9-15.3,18.9-24,27.3c-7.4,7.2-18.9,6.3-26.5-1C238,448.2,234.3,443.4,229.7,438.2z"/>
</g>
</svg>
